<svg version="1.1" id="Layer_1" xmlns="http://www.w3.org/2000/svg" xmlns:xlink="http://www.w3.org/1999/xlink" x="0px" y="0px"
	 width="100%" viewBox="0 0 134 99" enable-background="new 0 0 134 99" xml:space="preserve">
<path fill="#ED8E68" opacity="1.000000" stroke="none" 
	d="
M135.000000,82.000000 
	C135.000000,83.714355 135.000000,85.428719 134.747162,87.217896 
	C131.940094,92.013062 129.486389,96.817390 124.377525,99.403763 
	C124.585014,99.602509 124.792511,99.801254 125.000000,100.000000 
	C86.312439,100.000000 47.624878,100.000000 8.816990,99.780365 
	C6.131109,97.040489 3.565555,94.520241 1.000000,92.000000 
	C1.000000,64.312439 1.000000,36.624878 1.240751,8.810032 
	C3.987406,6.590200 6.512326,4.519375 8.968267,2.369743 
	C9.200536,2.166443 8.999739,1.468367 9.000000,1.000000 
	C48.020893,1.000000 87.041786,1.000000 126.194473,1.253433 
	C130.840225,4.736724 132.635254,9.311538 133.085999,14.669826 
	C133.155350,15.494385 134.334244,16.225611 135.000000,17.000000 
	C135.000000,20.361288 135.000000,23.722574 134.720825,27.852226 
	C134.298630,29.430374 134.032166,30.239960 134.030884,31.049963 
	C134.006012,46.798149 133.990005,62.546474 134.054581,78.294434 
	C134.059647,79.530891 134.670624,80.764870 135.000000,82.000000 
M47.666393,65.293221 
	C39.463665,69.250397 33.738964,65.899094 33.564495,56.844479 
	C33.400894,48.353989 33.228065,39.845272 33.612045,31.369617 
	C33.838276,26.375977 31.994221,24.708157 27.325518,25.382725 
	C26.509663,25.500603 25.651117,25.491772 24.831762,25.387880 
	C20.989813,24.900730 20.017456,26.731956 20.097061,30.328047 
	C20.307100,39.816288 19.991652,49.318111 20.298128,58.801189 
	C20.402132,62.019310 21.153601,65.502510 22.626755,68.335442 
	C26.651894,76.075882 38.153214,79.850983 48.666431,77.399918 
	C58.854824,75.024574 64.310524,68.752724 64.570396,58.478195 
	C64.806129,49.157825 64.467682,39.822723 64.715233,30.502956 
	C64.819382,26.581726 63.552296,24.903780 59.615501,25.383123 
	C58.630898,25.503008 57.606625,25.503130 56.622185,25.382284 
	C52.617805,24.890718 50.989250,26.323330 51.142193,30.622448 
	C51.443970,39.105160 51.474007,47.617443 51.090809,56.093731 
	C50.957985,59.031906 49.268597,61.899708 47.666393,65.293221 
M103.639122,60.417419 
	C111.481575,56.812157 115.312103,50.328762 114.470879,42.084034 
	C113.624352,33.787277 108.971397,27.351795 101.487610,26.392529 
	C93.462196,25.363834 85.261215,25.573084 77.137932,25.597696 
	C76.061180,25.600958 74.072243,27.686506 74.056442,28.829157 
	C73.849327,43.800461 73.865128,58.776283 74.040215,73.748451 
	C74.052963,74.837929 75.629654,76.709961 76.652443,76.838371 
	C79.868317,77.242096 83.166901,76.987015 87.052902,76.987015 
	C87.052902,72.680870 87.132637,69.061333 87.025818,65.447311 
	C86.950317,62.892944 87.986092,62.007706 90.549713,61.907623 
	C94.677330,61.746475 98.787834,61.146976 103.639122,60.417419 
z"/>
<path fill="#000000" opacity="1.000000" stroke="none" 
	d="
M135.000000,16.528801 
	C134.334244,16.225611 133.155350,15.494385 133.085999,14.669826 
	C132.635254,9.311538 130.840225,4.736724 126.663132,1.253433 
	C129.616470,1.000000 132.232925,1.000000 135.000000,1.000000 
	C135.000000,6.018550 135.000000,11.038077 135.000000,16.528801 
z"/>
<path fill="#000000" opacity="1.000000" stroke="none" 
	d="
M125.486565,100.000000 
	C124.792511,99.801254 124.585014,99.602509 124.377525,99.403763 
	C129.486389,96.817390 131.940094,92.013062 134.747162,87.646355 
	C135.000000,91.911972 135.000000,95.823952 135.000000,100.000000 
	C131.993881,100.000000 128.983505,100.000000 125.486565,100.000000 
z"/>
<path fill="#B375AB" opacity="1.000000" stroke="none" 
	d="
M135.000000,81.531342 
	C134.670624,80.764870 134.059647,79.530891 134.054581,78.294434 
	C133.990005,62.546474 134.006012,46.798149 134.030884,31.049963 
	C134.032166,30.239960 134.298630,29.430374 134.720825,28.310295 
	C135.000000,45.687561 135.000000,63.375122 135.000000,81.531342 
z"/>
<path fill="#000000" opacity="1.000000" stroke="none" 
	d="
M1.000000,92.494736 
	C3.565555,94.520241 6.131109,97.040489 8.348331,99.780365 
	C5.745431,100.000000 3.490862,100.000000 1.000000,100.000000 
	C1.000000,97.665672 1.000000,95.327568 1.000000,92.494736 
z"/>
<path fill="#000000" opacity="1.000000" stroke="none" 
	d="
M8.505266,1.000000 
	C8.999739,1.468367 9.200536,2.166443 8.968267,2.369743 
	C6.512326,4.519375 3.987406,6.590200 1.240751,8.341375 
	C1.000000,5.745431 1.000000,3.490863 1.000000,1.000000 
	C3.334326,1.000000 5.672430,1.000000 8.505266,1.000000 
z"/>
<path fill="#FEF9F8" opacity="1.000000" stroke="none" 
	d="
M47.978287,65.046432 
	C49.268597,61.899708 50.957985,59.031906 51.090809,56.093731 
	C51.474007,47.617443 51.443970,39.105160 51.142193,30.622448 
	C50.989250,26.323330 52.617805,24.890718 56.622185,25.382284 
	C57.606625,25.503130 58.630898,25.503008 59.615501,25.383123 
	C63.552296,24.903780 64.819382,26.581726 64.715233,30.502956 
	C64.467682,39.822723 64.806129,49.157825 64.570396,58.478195 
	C64.310524,68.752724 58.854824,75.024574 48.666431,77.399918 
	C38.153214,79.850983 26.651894,76.075882 22.626755,68.335442 
	C21.153601,65.502510 20.402132,62.019310 20.298128,58.801189 
	C19.991652,49.318111 20.307100,39.816288 20.097061,30.328047 
	C20.017456,26.731956 20.989813,24.900730 24.831762,25.387880 
	C25.651117,25.491772 26.509663,25.500603 27.325518,25.382725 
	C31.994221,24.708157 33.838276,26.375977 33.612045,31.369617 
	C33.228065,39.845272 33.400894,48.353989 33.564495,56.844479 
	C33.738964,65.899094 39.463665,69.250397 47.978287,65.046432 
z"/>
<path fill="#FEFBFA" opacity="1.000000" stroke="none" 
	d="
M103.272339,60.575043 
	C98.787834,61.146976 94.677330,61.746475 90.549713,61.907623 
	C87.986092,62.007706 86.950317,62.892944 87.025818,65.447311 
	C87.132637,69.061333 87.052902,72.680870 87.052902,76.987015 
	C83.166901,76.987015 79.868317,77.242096 76.652443,76.838371 
	C75.629654,76.709961 74.052963,74.837929 74.040215,73.748451 
	C73.865128,58.776283 73.849327,43.800461 74.056442,28.829157 
	C74.072243,27.686506 76.061180,25.600958 77.137932,25.597696 
	C85.261215,25.573084 93.462196,25.363834 101.487610,26.392529 
	C108.971397,27.351795 113.624352,33.787277 114.470879,42.084034 
	C115.312103,50.328762 111.481575,56.812157 103.272339,60.575043 
M87.012398,48.172520 
	C87.850853,52.181885 91.995453,53.278118 97.011864,50.606602 
	C100.799805,48.589329 101.700813,45.200214 100.579941,41.269588 
	C99.379356,37.059425 94.991302,35.008312 89.606750,35.923649 
	C85.307823,36.654446 87.484795,40.042507 87.062019,42.290897 
	C86.760941,43.892094 87.004845,45.595772 87.012398,48.172520 
z"/>
<path fill="#EE926E" opacity="1.000000" stroke="none" 
	d="
M87.008965,47.713116 
	C87.004845,45.595772 86.760941,43.892094 87.062019,42.290897 
	C87.484795,40.042507 85.307823,36.654446 89.606750,35.923649 
	C94.991302,35.008312 99.379356,37.059425 100.579941,41.269588 
	C101.700813,45.200214 100.799805,48.589329 97.011864,50.606602 
	C91.995453,53.278118 87.850853,52.181885 87.008965,47.713116 
z"/>
</svg>